<?xml version="1.0" encoding="UTF-8"?>
<svg width="25px" height="25px" viewBox="0 0 25 25" version="1.1" xmlns="http://www.w3.org/2000/svg" xmlns:xlink="http://www.w3.org/1999/xlink">
    <title>account</title>
    <defs>
        <filter id="filter-1">
            <feColorMatrix in="SourceGraphic" type="matrix" values="0 0 0 0 0.000000 0 0 0 0 0.000000 0 0 0 0 0.000000 0 0 0 1.000000 0"></feColorMatrix>
        </filter>
    </defs>
    <g id="Symbols" stroke="none" stroke-width="1" fill="none" fill-rule="evenodd">
        <g id="account" transform="translate(-27.000000, -9.000000)">
            <g transform="translate(27.000000, 9.000000)">
                <g id="icon" transform="translate(13.000000, 12.500000) scale(-1, 1) rotate(-180.000000) translate(-13.000000, -12.500000) translate(2.000000, 0.000000)" fill="#757575" fill-rule="nonzero">
                    <path d="M7.4044075,24.1479498 C5.51825432,22.8995329 4.59297162,21.2230873 4.59297162,19.1542822 C4.59297162,12.3058237 13.7390352,10.5580401 16.1945931,16.9428008 C16.906349,18.9045988 16.6928222,20.6167134 15.4828372,22.4715042 C13.8457986,24.968338 9.85996542,25.7887263 7.4044075,24.1479498 Z M13.1696304,23.2918925 C14.3084399,22.6141804 15.6251884,20.2600228 15.6251884,18.9402678 C15.6251884,17.6918509 14.5931423,15.765722 13.4899206,14.9810028 C11.2834773,13.4115644 8.61439256,13.768255 6.72823938,15.9083982 C4.8420862,18.0485415 5.41149093,21.686785 7.90263664,23.1848853 C9.32614848,24.0766117 11.7817064,24.1122807 13.1696304,23.2918925 Z" id="Shape"></path>
                    <path d="M7.68910987,11.7707879 C2.84916963,10.522371 -0.389319801,6.99113465 0.0377337493,3.35289111 C0.286848321,1.2484169 4.30826926,0 10.9987749,0 C17.6892805,0 21.7107015,1.2484169 21.959816,3.35289111 C22.315694,6.38476072 20.2871896,9.23828507 16.6928222,10.8433925 C14.2372643,11.9491332 10.10908,12.3771618 7.68910987,11.7707879 Z M14.5931423,10.486702 C17.1910514,9.73765183 18.6857388,8.73891831 19.9313117,7.0268037 C21.2124723,5.27902004 21.3548235,3.24588394 20.2516018,2.56817191 C17.084288,0.606373923 4.91326179,0.606373923 1.74594795,2.56817191 C0.108909341,3.60257449 1.46124559,7.34782519 4.09474248,9.09560885 C6.87059056,10.9147306 11.1767139,11.4854355 14.5931423,10.486702 Z" id="Shape"></path>
                </g>
            </g>
        </g>
    </g>
</svg>