<?xml version="1.0" encoding="UTF-8"?>
<svg width="25px" height="25px" viewBox="0 0 25 25" version="1.1" xmlns="http://www.w3.org/2000/svg" xmlns:xlink="http://www.w3.org/1999/xlink">
    <title>brands</title>
    <defs>
        <filter id="filter-1">
            <feColorMatrix in="SourceGraphic" type="matrix" values="0 0 0 0 0.458824 0 0 0 0 0.458824 0 0 0 0 0.458824 0 0 0 1.000000 0"></feColorMatrix>
        </filter>
    </defs>
    <g id="Symbols" stroke="none" stroke-width="1" fill="none" fill-rule="evenodd">
        <g id="brands" transform="translate(-28.000000, -9.000000)">
            <g transform="translate(40.500000, 21.500000) scale(-1, 1) rotate(-180.000000) translate(-40.500000, -21.500000) translate(28.000000, 9.000000)">
                <path d="M11.4489984,22.4688867 C10.0628979,21.7443891 2.03640875,13.5114619 1.42394572,12.1941935 C0.456898835,10.1194958 0.972657173,9.06568112 4.77637492,5.14680774 C10.2240724,-0.517446228 10.5786562,-0.517446228 17.0256355,6.00303218 C19.5721922,8.53877378 21.8608699,11.0415837 22.118749,11.5355593 C22.4088631,12.0953984 22.6667423,14.0054375 22.7956819,16.5411791 L22.9890912,20.6576427 C23.0452447,21.4795544 22.8846085,22.0833024 22.5071829,22.4688867 C22.1297572,22.8544711 21.5275008,23.0301069 20.7004136,22.9957941 L16.542112,22.9957941 C13.447562,22.9957941 12.1581661,22.8640672 11.4489984,22.4688867 Z M21.6003469,21.5911773 C22.154809,21.2018381 21.9253397,20.1307354 21.8931048,17.9901743 C21.8608699,12.4247155 21.9898095,12.6881691 16.5743469,7.155642 C13.9310854,4.45524185 11.5134682,2.15002221 11.1911192,2.05122708 C9.9661932,1.65604657 8.80573694,2.38054417 5.87236139,5.31146629 C2.51993219,8.67050062 1.81076447,9.75724702 2.10087854,11.1074471 C2.29428792,11.9966032 11.255589,21.415072 12.2548708,21.7773208 C12.51275,21.876116 14.4468438,21.9749111 16.542112,21.9749111 C20.1524204,22.0078428 21.2531237,22.0426518 21.6003469,21.5911773 Z" id="Shape" fill="#757575" fill-rule="nonzero"></path>
                <path d="M15.317186,18.9781256 C12.8028641,17.4961987 13.737676,13.7749155 16.6065818,13.7749155 C19.1853735,13.7749155 20.3135949,16.8375645 18.3472662,18.5170816 C17.2835146,19.4391695 16.3487026,19.5708963 15.317186,18.9781256 Z M17.799273,17.8255157 C18.9597292,16.7387693 18.2183266,14.7628668 16.6065818,14.7628668 C15.0270719,14.7628668 14.2856693,16.5741108 15.3816557,17.792584 C16.0263537,18.5170816 17.0256355,18.5500134 17.799273,17.8255157 Z" id="Shape" fill="#757575" fill-rule="nonzero"></path>
            </g>
        </g>
    </g>
</svg>