<?xml version="1.0" encoding="UTF-8"?>
<svg width="25px" height="25px" viewBox="0 0 25 25" version="1.1" xmlns="http://www.w3.org/2000/svg" xmlns:xlink="http://www.w3.org/1999/xlink">
    <title>home</title>
    <defs>
        <filter id="filter-1">
            <feColorMatrix in="SourceGraphic" type="matrix" values="0 0 0 0 0.458824 0 0 0 0 0.458824 0 0 0 0 0.458824 0 0 0 1.000000 0"></feColorMatrix>
        </filter>
    </defs>
    <g id="Symbols" stroke="none" stroke-width="1" fill="none" fill-rule="evenodd">
        <g id="home" transform="translate(-28.000000, -9.000000)">
            <g transform="translate(28.000000, 9.000000)">
                <g id="Group" transform="translate(13.000000, 12.616592) scale(-1, 1) rotate(-180.000000) translate(-13.000000, -12.616592) translate(1.000000, 1.466210)" fill="#000000" fill-rule="nonzero">
                    <path d="M11.0261371,21.8299941 C9.41860964,20.9319548 0,12.2064768 0,11.4847501 C0,11.0582752 0.328708175,10.8942464 1.41344515,10.8286349 L2.79401948,10.7302176 C2.64062234,5.06575623 2.91454581,1.81798591 3.61578992,0.986906637 C4.31703403,0.155827364 5.51134039,-0.150359737 7.19870902,0.068345335 C8.52273043,0.680719536 9.24588841,1.94920895 9.36818298,3.87381359 C9.55162482,6.76072054 14.4598286,7.06791972 14.6275138,3.87381359 C14.7393039,1.7444095 15.4624619,0.47592008 16.7969877,0.068345335 C18.4843563,-0.150359737 19.6786627,0.155827364 20.3799068,0.986906637 C20.9058399,1.59928084 21.1797634,4.85798641 21.2016773,10.7630234 L22.51651,10.7630234 C24.9818213,10.7630234 24.6202423,11.4191386 19.5581364,16.2743912 C16.9613418,18.7348232 14.4797013,21.4577014 14.1838639,21.6873417 C13.5264476,22.1466223 12.6336646,22.7280335 11.0261371,21.8299941 Z M13.962781,20.7747064 C14.6201973,20.4138431 22.8440095,11.9440307 22.8440095,11.6815847 C22.8440095,11.6378436 22.0226419,11.6050379 20.3799068,11.5831674 L20.2812944,6.76072054 C20.2155527,2.00388522 20.0149104,2.00388522 19.1501433,1.28215848 C18.2853761,0.560431747 17.3223126,0.771659459 16.4354087,1.41338153 C15.5485049,2.0551036 15.7451216,2.39666146 15.6136383,3.84100783 C15.482155,5.28535419 15.4992363,5.6464343 14.6275138,6.56388597 C14.0463654,7.17552042 13.1698103,7.53638379 11.9978484,7.64647608 C11.0151891,7.60690698 10.1997812,7.24604361 9.55162482,6.56388597 C8.90346839,5.88172833 8.51361293,4.97410229 8.38205845,3.84100783 C8.27248906,2.63812993 7.99856558,1.82892116 7.56028801,1.41338153 C6.92478554,0.757266312 5.9605749,0.713525297 4.66765608,1.28215848 C4.07598136,1.76330964 3.75823013,3.58949699 3.71440237,6.76072054 L3.61578992,11.5831674 C1.83599417,11.6050379 0.946096296,11.6378436 0.946096296,11.6815847 C0.946096296,11.9440307 10.3687208,20.5786852 11.0261371,20.9395485 C11.94652,21.4644407 13.0423981,21.2995986 13.962781,20.7747064 Z" id="Shape"></path>
                </g>
            </g>
        </g>
    </g>
</svg>